<svg width="90" height="35" viewBox="0 0 90 35" fill="none" xmlns="http://www.w3.org/2000/svg">
<path d="M43.9355 9.62723C44.0043 9.6805 44.0695 9.73587 44.1341 9.79406C44.1532 9.81051 44.1722 9.82695 44.1918 9.8439C44.5388 10.1637 44.8028 10.6775 44.8358 11.1502C44.8381 11.2304 44.8384 11.3104 44.8376 11.3907C44.8373 11.4192 44.8371 11.4476 44.8368 11.4769C44.826 12.1799 44.5051 12.6647 44.0683 13.193C43.9996 13.2767 43.9327 13.3618 43.866 13.4471C43.8536 13.4629 43.8412 13.4788 43.8284 13.4952C43.8035 13.527 43.7786 13.5589 43.7537 13.5908C43.6903 13.6718 43.6267 13.7527 43.563 13.8336C43.5375 13.8661 43.512 13.8986 43.4864 13.9311C43.0268 14.5162 43.0268 14.5162 42.9885 14.5649C42.9629 14.5975 42.9373 14.6301 42.9117 14.6627C42.8489 14.7426 42.7861 14.8224 42.7233 14.9023C42.5632 15.1057 42.4039 15.3098 42.2451 15.5143C42.1341 15.6571 42.0225 15.7996 41.9106 15.9418C41.8062 16.0744 41.7026 16.2076 41.599 16.3409C41.4448 16.5394 41.29 16.7373 41.1345 16.9347C41.0711 17.0153 41.0077 17.096 40.9443 17.1767C40.9188 17.2092 40.8933 17.2417 40.8677 17.2742C40.8551 17.2903 40.8424 17.3064 40.8294 17.323C40.689 17.5017 40.5485 17.6805 40.4081 17.8593C40.3954 17.8753 40.3828 17.8914 40.3698 17.908C40.3442 17.9405 40.3186 17.9731 40.293 18.0056C40.2298 18.0861 40.1666 18.1666 40.1036 18.2473C39.9527 18.4403 39.7995 18.6313 39.6446 18.8212C39.5449 18.9435 39.4466 19.0669 39.3494 19.1913C39.2415 19.3293 39.1319 19.4658 39.0206 19.6011C38.9371 19.7027 38.8542 19.8048 38.7714 19.9069C38.6473 20.0598 38.5229 20.2124 38.3981 20.3647C38.3584 20.4132 38.3188 20.4617 38.2793 20.5103C38.1533 20.6651 38.0254 20.8181 37.8962 20.9702C37.816 21.0647 37.7369 21.1601 37.6588 21.2563C37.5223 21.4239 37.3815 21.5875 37.2405 21.7512C37.1703 21.8328 37.1002 21.9146 37.0302 21.9963C37.0096 22.0203 37.0096 22.0203 36.9886 22.0448C36.9178 22.1274 36.8471 22.21 36.7765 22.2928C36.6311 22.4631 36.4846 22.632 36.3341 22.7979C36.2823 22.8552 36.2312 22.9131 36.1805 22.9714C36.066 23.1028 35.9491 23.232 35.8323 23.3614C35.7905 23.4078 35.7487 23.4543 35.7069 23.5007C35.6757 23.5353 35.6757 23.5353 35.6439 23.5707C35.6032 23.616 35.5625 23.6613 35.5218 23.7067C35.3486 23.8999 35.1729 24.0906 34.9965 24.2808C34.9804 24.2982 34.9642 24.3157 34.9476 24.3337C34.5956 24.7137 34.5956 24.7137 34.416 24.8875C34.3669 24.938 34.3217 24.9892 34.2762 25.0428C34.1301 25.2102 33.9716 25.3655 33.8144 25.5223C33.7808 25.5559 33.7473 25.5895 33.7138 25.623C33.6438 25.6931 33.5737 25.7631 33.5037 25.833C33.4144 25.9221 33.3252 26.0114 33.2361 26.1007C33.1669 26.1699 33.0977 26.2391 33.0285 26.3083C32.9956 26.3411 32.9628 26.374 32.9299 26.4069C32.774 26.5631 32.6185 26.7185 32.45 26.8613C32.3802 26.9215 32.3168 26.9868 32.2525 27.0527C32.1525 27.1541 32.0504 27.2508 31.9421 27.3432C31.8486 27.4254 31.7582 27.5108 31.6674 27.596C31.5426 27.713 31.4176 27.8291 31.2879 27.9406C31.2248 27.9954 31.1633 28.0517 31.1016 28.1079C31.0051 28.1951 30.9067 28.2787 30.8056 28.3604C30.6996 28.4461 30.5976 28.5345 30.4974 28.6268C30.3743 28.7399 30.2477 28.8467 30.1177 28.9516C30.0313 29.022 29.9466 29.0941 29.8619 29.1665C29.7064 29.2989 29.547 29.4257 29.386 29.5511C29.2814 29.6326 29.1781 29.7156 29.0748 29.7986C28.9031 29.9364 28.7295 30.0716 28.5544 30.2052C28.5016 30.2456 28.4489 30.2861 28.3962 30.3267C28.1014 30.5536 27.8031 30.7755 27.5026 30.9948C27.4811 31.0105 27.4597 31.0261 27.4376 31.0423C26.7655 31.5324 26.0765 31.9969 25.3575 32.4156C25.3387 32.4266 25.3199 32.4375 25.3005 32.4488C24.9635 32.6441 24.6181 32.8241 24.271 33.0006C24.2354 33.0188 24.2354 33.0188 24.1991 33.0373C22.7986 33.7458 21.2119 34.1989 19.6423 34.2778C19.5501 34.2829 19.4581 34.2899 19.366 34.2967C17.7149 34.4069 16.0439 34.1469 14.4787 33.624C14.4571 33.6168 14.4355 33.6096 14.4132 33.6021C13.8253 33.405 13.2667 33.1567 12.7101 32.8846C12.0076 32.5412 11.2943 32.2233 10.5646 31.942C10.5466 31.9351 10.5287 31.9281 10.5102 31.921C8.98115 31.3336 7.21422 30.9799 5.62315 31.5276C5.13659 31.694 4.53849 31.7608 4.04566 31.5798C4.01614 31.57 3.98662 31.5602 3.95621 31.5501C3.61561 31.4298 3.35786 31.2426 3.09847 30.9948C3.08134 30.9797 3.06421 30.9647 3.04656 30.9492C2.63676 30.5752 2.39042 29.9596 2.36544 29.4156C2.34547 28.7154 2.56125 28.1283 3.04101 27.6117C3.34665 27.3189 3.72834 27.1004 4.07941 26.8674C4.44805 26.6227 4.81455 26.3748 5.18121 26.1272C5.60281 25.8425 5.60281 25.8425 5.81305 25.7027C6.08555 25.5214 6.35657 25.338 6.6278 25.1548C7.21021 24.7616 7.21021 24.7616 7.46521 24.592C7.72041 24.4215 7.97443 24.2493 8.22879 24.0775C8.48948 23.9015 8.7502 23.7256 9.0121 23.5514C9.26577 23.3826 9.51804 23.2116 9.7706 23.041C10.353 22.6477 10.353 22.6477 10.6276 22.4651C10.8814 22.2962 11.1338 22.1251 11.3864 21.9545C11.7073 21.7378 12.0283 21.5213 12.3508 21.3069C12.4489 21.2416 12.547 21.1761 12.6451 21.1107C12.6857 21.0837 12.7262 21.0567 12.7668 21.0296C12.7868 21.0163 12.8069 21.0029 12.8275 20.9891C12.9925 20.8791 13.1576 20.7691 13.3226 20.6591C13.3072 20.6544 13.2918 20.6497 13.276 20.6448C13.0914 20.5882 12.9068 20.5314 12.7223 20.4745C12.6363 20.4479 12.5503 20.4215 12.4642 20.395C11.8389 20.2027 11.2156 20.0052 10.5942 19.8007C9.94113 19.5859 9.28671 19.3799 8.62293 19.2004C8.57254 19.1864 8.52232 19.1718 8.47215 19.157C8.24042 19.089 8.00846 19.0335 7.77174 18.9858C7.73665 18.9786 7.70155 18.9715 7.66539 18.9641C7.14953 18.8601 6.64962 18.786 6.12286 18.7856C6.10184 18.7855 6.08081 18.7855 6.05915 18.7855C5.73472 18.786 5.42073 18.798 5.10428 18.8761C5.08576 18.8806 5.06724 18.8851 5.04816 18.8897C4.53523 19.0195 4.08318 19.2715 3.66772 19.5939C3.13573 20.0028 2.54017 20.1791 1.86729 20.0942C1.46714 20.0278 1.09054 19.8381 0.786206 19.5726C0.759236 19.5511 0.732267 19.5296 0.70448 19.5075C0.321131 19.1876 0.0598414 18.6409 0.00616573 18.1518C-0.0337922 17.4764 0.116743 16.8906 0.56682 16.3688C1.4894 15.3859 2.86642 14.7774 4.15709 14.4744C4.1762 14.4698 4.1953 14.4653 4.21499 14.4606C4.76912 14.3311 5.33264 14.2937 5.90002 14.2979C5.99571 14.2985 6.09138 14.2984 6.18707 14.2982C6.81636 14.2989 7.42896 14.3539 8.04859 14.4622C8.09041 14.4694 8.09041 14.4694 8.13308 14.4767C8.87214 14.6046 9.5987 14.7757 10.313 15.0052C10.3932 15.0303 10.4738 15.054 10.5545 15.0774C10.8222 15.155 11.0875 15.2393 11.3525 15.3258C11.397 15.3403 11.4415 15.3547 11.486 15.3692C11.6017 15.4068 11.7175 15.4445 11.8332 15.4822C12.0184 15.5426 12.2036 15.6028 12.3888 15.6631C12.4525 15.6838 12.5162 15.7046 12.5799 15.7253C14.8019 16.4772 14.8019 16.4772 17.1113 16.7867C17.1379 16.7872 17.1645 16.7878 17.1919 16.7884C17.7166 16.7981 18.2053 16.7664 18.7184 16.6578C19.3846 16.519 20.05 16.6074 20.6407 16.9591C21.2262 17.3535 21.6301 17.9437 21.7711 18.6361C21.8847 19.2827 21.7062 19.9297 21.3466 20.471C21.0304 20.8999 20.6016 21.1793 20.1625 21.4688C20.0339 21.5537 19.9055 21.6389 19.7772 21.7241C19.7506 21.7418 19.724 21.7594 19.6966 21.7776C19.3985 21.9754 19.1019 22.1756 18.8055 22.3759C18.7087 22.4413 18.612 22.5066 18.5152 22.572C18.4925 22.5874 18.4697 22.6028 18.4462 22.6187C18.3136 22.7082 18.1807 22.7973 18.0475 22.8858C17.7763 23.0662 17.5066 23.2488 17.2367 23.4311C16.6543 23.8244 16.6543 23.8244 16.3797 24.007C16.1259 24.1759 15.8735 24.347 15.6209 24.5176C15.0385 24.9109 15.0385 24.9109 14.7639 25.0935C14.5101 25.2624 14.2577 25.4335 14.0051 25.6041C13.4227 25.9974 13.4227 25.9974 13.1975 26.1471C12.9255 26.328 12.6549 26.5112 12.3841 26.694C11.4803 27.3042 11.4803 27.3042 11.3167 27.401C11.3336 27.4039 11.3505 27.4068 11.368 27.4099C11.5427 27.4422 11.7056 27.4891 11.8722 27.5507C11.8983 27.5603 11.9245 27.5698 11.9514 27.5797C12.1962 27.6713 12.4334 27.7785 12.6712 27.8868C12.8893 27.9851 13.1095 28.0711 13.3348 28.1514C13.6788 28.275 14.007 28.4238 14.3368 28.5808C15.32 29.0483 16.2772 29.4437 17.3621 29.6018C17.3831 29.605 17.4041 29.6082 17.4258 29.6114C17.8604 29.6763 18.292 29.692 18.7306 29.6924C18.7562 29.6924 18.7818 29.6925 18.8082 29.6925C19.2506 29.6926 19.6819 29.6663 20.1201 29.6018C20.1507 29.5974 20.1813 29.593 20.2128 29.5884C20.3865 29.5626 20.5583 29.5332 20.7295 29.4939C20.7508 29.489 20.7722 29.4841 20.7942 29.4791C20.8574 29.4645 20.9206 29.4496 20.9837 29.4347C21.0165 29.427 21.0493 29.4194 21.0831 29.4115C21.6143 29.279 22.1343 29.0869 22.6273 28.8496C22.6459 28.8408 22.6644 28.8319 22.6836 28.8228C23.3554 28.5003 23.9965 28.118 24.5854 27.6607C24.6562 27.6061 24.7283 27.5533 24.8003 27.5002C24.9919 27.3565 25.1769 27.2048 25.362 27.0529C25.4066 27.0164 25.4513 26.9801 25.496 26.9438C25.6867 26.789 25.8732 26.6296 26.0592 26.4693C26.1095 26.4261 26.1599 26.383 26.2104 26.34C26.3617 26.2112 26.5118 26.0816 26.6581 25.9471C26.7549 25.8582 26.8534 25.7734 26.9559 25.6911C27.0895 25.5834 27.2148 25.469 27.3399 25.3518C27.4573 25.2425 27.5796 25.1411 27.7047 25.0407C27.7885 24.9712 27.8686 24.8982 27.9483 24.824C28.0516 24.7279 28.1568 24.6355 28.2669 24.5472C28.4178 24.4257 28.559 24.2954 28.7005 24.1633C28.7829 24.0865 28.8672 24.012 28.9524 23.9383C29.0177 23.8814 29.082 23.8234 29.1462 23.7654C29.2293 23.6904 29.3126 23.616 29.397 23.5425C29.6129 23.3542 29.8243 23.1607 30.0352 22.9668C30.0933 22.9134 30.1516 22.8602 30.21 22.8071C30.3447 22.6843 30.4778 22.5609 30.6053 22.4306C30.6534 22.3836 30.7036 22.3408 30.7551 22.2975C30.8554 22.2108 30.9468 22.1176 31.0371 22.0207C31.0504 22.0067 31.0637 21.9927 31.0774 21.9782C31.1534 21.8953 31.197 21.8225 31.2356 21.7177C30.9163 21.3977 30.5969 21.0778 30.2773 20.758C30.129 20.6095 29.9806 20.4609 29.8323 20.3123C29.703 20.1827 29.5737 20.0532 29.4442 19.9237C29.3758 19.8552 29.3073 19.7867 29.239 19.7181C29.1624 19.6413 29.0858 19.5647 29.0091 19.488C28.9867 19.4655 28.9644 19.4431 28.9413 19.4199C28.8457 19.3245 28.7497 19.2313 28.6473 19.1433C28.5047 19.0204 28.3732 18.8865 28.2405 18.7531C28.2117 18.7243 28.183 18.6955 28.1542 18.6667C28.0927 18.6051 28.0312 18.5434 27.9697 18.4817C27.8723 18.384 27.7749 18.2863 27.6774 18.1887C27.4529 17.9639 27.2285 17.7389 27.0042 17.5139C26.7984 17.3076 26.5926 17.1013 26.3867 16.8951C26.29 16.7982 26.1933 16.7013 26.0967 16.6043C26.0364 16.5438 25.976 16.4833 25.9157 16.4229C25.8879 16.3951 25.8601 16.3672 25.8324 16.3393C25.6962 16.2024 25.5588 16.0694 25.4123 15.9436C25.306 15.8498 25.2064 15.749 25.106 15.6491C25.0819 15.6252 25.0578 15.6014 25.033 15.5768C24.9539 15.4984 24.875 15.4199 24.7961 15.3414C24.7686 15.3141 24.7412 15.2868 24.7138 15.2596C24.5996 15.146 24.4855 15.0324 24.3714 14.9186C24.2092 14.7569 24.0467 14.5953 23.8839 14.4341C23.7688 14.3201 23.6539 14.2057 23.5393 14.0912C23.4711 14.0231 23.4028 13.9552 23.3342 13.8875C22.7621 13.322 22.375 12.7768 22.3644 11.9409C22.3691 11.3431 22.6135 10.7932 23.0301 10.3653C23.4577 9.94778 24.03 9.7311 24.6244 9.72945C24.9759 9.73491 25.3231 9.82988 25.6361 9.98907C25.6643 10.0033 25.6926 10.0175 25.7217 10.0322C26.0512 10.2209 26.3035 10.506 26.5636 10.7783C26.6201 10.8341 26.6765 10.8854 26.7368 10.9367C26.8826 11.0639 27.0183 11.2007 27.1547 11.3378C27.1834 11.3667 27.2122 11.3955 27.241 11.4243C27.3025 11.4859 27.364 11.5476 27.4255 11.6093C27.5228 11.707 27.6203 11.8046 27.7178 11.9023C27.9423 12.1271 28.1666 12.3521 28.391 12.5771C28.5968 12.7834 28.8026 12.9897 29.0085 13.1959C29.1052 13.2928 29.2019 13.3897 29.2985 13.4867C29.3588 13.5472 29.4191 13.6076 29.4795 13.6681C29.5073 13.6959 29.535 13.7238 29.5628 13.7517C29.6811 13.8706 29.7989 13.9889 29.9263 14.0983C30.0682 14.2202 30.1987 14.3533 30.3305 14.4859C30.3593 14.5147 30.3881 14.5435 30.4168 14.5723C30.4784 14.634 30.5399 14.6956 30.6013 14.7573C30.6987 14.8551 30.7962 14.9527 30.8937 15.0503C31.1182 15.2752 31.3425 15.5002 31.5669 15.7251C31.7726 15.9315 31.9784 16.1378 32.1844 16.344C32.2811 16.4408 32.3778 16.5378 32.4744 16.6348C32.5347 16.6953 32.595 16.7557 32.6554 16.8161C32.6832 16.844 32.7109 16.8718 32.7387 16.8997C32.8775 17.0393 33.0175 17.1753 33.167 17.3035C33.224 17.3528 33.2778 17.4047 33.331 17.4581C33.351 17.4781 33.3711 17.4982 33.3917 17.5189C33.4125 17.5398 33.4333 17.5607 33.4547 17.5823C33.4767 17.6043 33.4986 17.6263 33.5212 17.6489C33.5905 17.7184 33.6598 17.7879 33.729 17.8575C33.7763 17.9049 33.8236 17.9524 33.8709 17.9998C33.9862 18.1154 34.1014 18.2311 34.2165 18.3468C34.4094 18.1546 34.5852 17.951 34.7567 17.7397C34.8112 17.6725 34.8661 17.6058 34.9212 17.5392C35.0886 17.337 35.254 17.1339 35.4152 16.9268C35.5006 16.8174 35.5889 16.711 35.6791 16.6056C35.8246 16.4354 35.9632 16.2603 36.1007 16.0834C36.1631 16.0031 36.2257 15.923 36.2885 15.843C36.301 15.827 36.3134 15.8111 36.3263 15.7947C36.4255 15.6686 36.5265 15.5441 36.628 15.4198C36.7608 15.2571 36.8904 15.0924 37.0178 14.9255C37.0884 14.833 37.1602 14.7416 37.2322 14.6502C37.3512 14.4992 37.4694 14.3476 37.5874 14.1958C37.7152 14.0313 37.8434 13.8671 37.9723 13.7035C38.0766 13.5708 38.1803 13.4376 38.2838 13.3043C38.4116 13.1398 38.5399 12.9756 38.6688 12.812C38.7731 12.6793 38.8768 12.5461 38.9803 12.4128C39.1345 12.2144 39.2893 12.0165 39.4448 11.819C39.4954 11.7547 39.5459 11.6904 39.5965 11.626C39.6221 11.5934 39.6478 11.5608 39.6734 11.5281C39.7367 11.4477 39.7999 11.3671 39.8629 11.2865C40.0138 11.0934 40.167 10.9023 40.322 10.7125C40.4076 10.6074 40.4923 10.5016 40.5756 10.3946C40.6255 10.3306 40.6757 10.2669 40.7261 10.2033C40.751 10.1718 40.7757 10.1403 40.8004 10.1087C41.5705 9.12867 42.9006 8.90208 43.9355 9.62723Z" fill="#E63F3A"/>
<path d="M55.2697 0.480721C55.3026 0.480639 55.3355 0.480557 55.3693 0.480472C55.8005 0.480228 56.227 0.492226 56.6557 0.539922C56.6766 0.542228 56.6975 0.544534 56.7191 0.54691C56.9944 0.578199 57.2638 0.627895 57.535 0.684441C57.5847 0.693843 57.6344 0.703079 57.6842 0.712082C58.5817 0.875127 59.4589 1.14968 60.293 1.52021C60.3213 1.5327 60.3496 1.54518 60.3788 1.55804C61.6455 2.11957 62.7812 2.87129 63.8032 3.80465C63.8298 3.82871 63.8565 3.85278 63.8839 3.87757C64.1313 4.10155 64.3741 4.33033 64.5908 4.5846C64.645 4.64745 64.7011 4.70822 64.7573 4.76927C64.8996 4.927 65.0295 5.09326 65.1591 5.2614C65.1922 5.304 65.226 5.34607 65.2599 5.38805C66.7737 7.2868 67.7398 9.79846 68.029 12.3636C68.0376 12.4401 68.0476 12.5163 68.0581 12.5925C68.111 12.9832 68.1405 13.3745 68.1665 13.7677C68.1683 13.7938 68.17 13.8199 68.1718 13.8468C68.1838 14.0282 68.1945 14.2096 68.2048 14.3911C68.2068 14.4249 68.2068 14.4249 68.2089 14.4594C68.2384 14.9755 68.2364 15.4914 68.2355 16.0082C68.2353 16.1329 68.2353 16.2577 68.2353 16.3825C68.2352 16.6177 68.235 16.8529 68.2347 17.0881C68.2344 17.3563 68.2342 17.6245 68.2341 17.8928C68.2338 18.4435 68.2333 18.9943 68.2327 19.545C68.295 19.4961 68.3574 19.4472 68.4197 19.3983C68.4372 19.3846 68.4548 19.3708 68.4728 19.3567C68.6033 19.2542 68.7321 19.1498 68.8595 19.0436C69.018 18.9122 69.178 18.7832 69.3404 18.6567C69.4646 18.5597 69.5871 18.4607 69.7092 18.361C69.8468 18.2487 69.9852 18.1376 70.1253 18.0284C70.2719 17.9142 70.4158 17.797 70.5589 17.6785C70.7175 17.5471 70.8775 17.4181 71.0399 17.2915C71.2395 17.1355 71.4353 16.975 71.6314 16.8148C71.8595 16.6287 72.0879 16.4434 72.3199 16.2622C72.4638 16.1496 72.6054 16.0343 72.7469 15.9187C72.8657 15.822 72.9854 15.7267 73.1062 15.6326C73.2527 15.5183 73.3966 15.4011 73.5397 15.2826C73.6982 15.1513 73.8581 15.0224 74.0204 14.8959C74.147 14.797 74.2719 14.6962 74.3964 14.5948C74.4154 14.5794 74.4343 14.5639 74.4539 14.548C74.5326 14.484 74.6113 14.4198 74.6897 14.3553C75.3047 13.8539 75.8709 13.606 76.6738 13.6668C77.2832 13.7539 77.8249 14.0634 78.1949 14.5547C78.4196 14.8713 78.5762 15.2557 78.5961 15.6447C78.5976 15.6734 78.599 15.702 78.6005 15.7315C78.6173 16.3759 78.4049 16.9794 77.959 17.4503C77.9394 17.4704 77.9198 17.4905 77.8996 17.5113C77.8771 17.5359 77.8771 17.5359 77.8541 17.561C77.7238 17.6996 77.5726 17.8125 77.4226 17.9285C77.3109 18.0152 77.2012 18.1043 77.0917 18.1938C76.9541 18.3062 76.8157 18.4172 76.6756 18.5264C76.529 18.6407 76.3852 18.7579 76.242 18.8764C76.0835 19.0077 75.9235 19.1367 75.7611 19.2633C75.6369 19.3603 75.5144 19.4593 75.3923 19.5589C75.233 19.689 75.0725 19.8173 74.9102 19.9437C74.7245 20.0727 74.7245 20.0727 74.5844 20.2415C74.6037 20.2487 74.623 20.2559 74.6429 20.2633C75.0613 20.439 75.4359 20.7336 75.7824 21.0215C75.8105 21.0445 75.8386 21.0674 75.8676 21.0911C76.264 21.4192 76.638 21.7837 76.9524 22.1916C76.9771 22.2216 77.0019 22.2516 77.0267 22.2814C78.0175 23.4785 78.6403 24.9052 79.0588 26.3902C79.3207 27.3141 79.6451 28.3636 80.3584 29.0497C80.4069 29.1007 80.4069 29.1007 80.4069 29.1564C80.431 29.167 80.431 29.167 80.4555 29.1778C80.5253 29.2159 80.5739 29.2601 80.6315 29.3148C80.9881 29.6366 81.4183 29.8346 81.8834 29.9364C81.904 29.9414 81.9245 29.9463 81.9457 29.9513C82.4148 30.0567 82.9305 30.0239 83.3878 29.8807C83.4066 29.8749 83.4255 29.8691 83.4449 29.8631C84.1654 29.6332 84.802 29.1452 85.2543 28.5435C85.2853 28.5027 85.2853 28.5027 85.3169 28.4611C85.4498 28.2821 85.5686 28.0964 85.6844 27.9059C86.0292 27.3403 86.4068 26.9209 87.0372 26.6769C87.0649 26.6654 87.0926 26.6539 87.1211 26.6421C87.3443 26.563 87.5577 26.5549 87.7929 26.5533C87.8231 26.553 87.8533 26.5527 87.8844 26.5524C88.4834 26.5589 89.0069 26.8301 89.4234 27.2501C89.8755 27.7283 90.0084 28.2901 89.9996 28.926C89.9593 30.0102 89.0149 31.12 88.3187 31.8866C88.3029 31.9041 88.2871 31.9216 88.2708 31.9397C87.4302 32.8687 86.3948 33.5538 85.2264 34.0039C85.2025 34.0132 85.1786 34.0224 85.154 34.032C84.6136 34.2396 84.0447 34.3728 83.4713 34.4496C83.4405 34.4539 83.4405 34.4539 83.409 34.4583C82.835 34.5357 82.2389 34.5426 81.6655 34.4582C81.6004 34.449 81.5352 34.4415 81.4699 34.4341C80.2314 34.2873 79.0286 33.751 78.0389 33.0009C78.0229 32.9889 78.0069 32.9769 77.9904 32.9645C77.4465 32.554 76.9189 32.0674 76.5067 31.5244C76.485 31.4973 76.4632 31.4701 76.4408 31.4421C76.0707 30.9775 75.7471 30.4594 75.5229 29.9086C75.5145 29.8881 75.5061 29.8677 75.4975 29.8467C75.4234 29.6565 75.3717 29.4606 75.3181 29.264C75.061 28.3227 74.7569 27.4027 74.3616 26.5098C74.3515 26.4868 74.3413 26.4638 74.3309 26.44C73.8757 25.4128 73.1636 24.4414 72.0841 24.0216C71.5078 23.8115 70.8381 23.7661 70.2664 24.0025C70.2394 24.013 70.2394 24.013 70.212 24.0237C69.6462 24.2451 69.1491 24.596 68.6645 24.9566C68.6468 24.9698 68.6292 24.9829 68.611 24.9964C68.5775 25.0216 68.5443 25.0472 68.5114 25.0733C68.4742 25.1023 68.4363 25.1303 68.3976 25.1574C68.2795 25.2469 68.2795 25.2469 68.2123 25.3752C68.2048 25.4499 68.2042 25.5217 68.2062 25.5968C68.2059 25.6387 68.2059 25.6387 68.2056 25.6815C68.2053 25.7737 68.2066 25.8658 68.2078 25.958C68.2078 26.0225 68.2077 26.0869 68.2075 26.1513C68.2071 26.321 68.2081 26.4905 68.2093 26.6601C68.2112 26.9309 68.2113 27.2018 68.2111 27.4726C68.2113 27.5667 68.212 27.6609 68.2128 27.755C68.2143 28.0481 68.2118 28.3177 68.1213 28.5992C68.1108 28.6331 68.1003 28.6671 68.0895 28.702C67.8433 29.3392 67.4256 29.7713 66.8063 30.0536C66.3409 30.2589 65.7129 30.2674 65.2381 30.091C64.9634 29.9698 64.7242 29.8301 64.4996 29.63C64.4785 29.6115 64.4573 29.5929 64.4355 29.5738C63.9523 29.1231 63.7444 28.4754 63.7164 27.8284C63.7111 27.6219 63.7118 27.4153 63.7122 27.2086C63.7121 27.1396 63.7121 27.0706 63.712 27.0015C63.7118 26.8344 63.712 26.6672 63.7123 26.5001C63.7126 26.3631 63.7127 26.2262 63.7128 26.0893C63.7137 24.9094 63.7255 23.73 63.7457 22.5503C63.746 22.5319 63.7463 22.5135 63.7467 22.4945C63.7526 22.1474 63.7587 21.8004 63.7649 21.4533C63.7959 19.7058 63.8069 17.9583 63.8097 16.2105C63.81 16.0401 63.8105 15.8696 63.8111 15.6992C63.8118 15.4896 63.8122 15.2801 63.8122 15.0705C63.8122 14.9622 63.8124 14.854 63.8129 14.7457C63.8151 14.251 63.7957 13.7658 63.7302 13.2746C63.716 13.1653 63.7037 13.0558 63.6915 12.9462C63.6499 12.5862 63.5715 12.2356 63.4884 11.8832C63.4718 11.8125 63.4557 11.7417 63.4401 11.6708C63.1212 10.2332 62.5066 8.83107 61.5466 7.70492C61.5213 7.67439 61.4959 7.64385 61.4706 7.61329C61.1812 7.26691 60.8706 6.95373 60.5159 6.67414C60.493 6.6546 60.47 6.63506 60.4464 6.61493C60.2149 6.41786 59.9642 6.25223 59.708 6.0891C59.6892 6.07714 59.6705 6.06518 59.6512 6.05286C58.9583 5.61574 58.1887 5.28999 57.3957 5.08617C57.3467 5.07265 57.3467 5.07265 57.2968 5.05886C56.2151 4.77048 55.0739 4.7338 53.9691 4.89116C53.9455 4.89443 53.9218 4.8977 53.8975 4.90107C53.7533 4.92147 53.6104 4.94628 53.4676 4.97473C53.4468 4.9788 53.426 4.98287 53.4046 4.98706C51.9685 5.27627 50.5775 5.95681 49.456 6.89701C49.4264 6.92133 49.3968 6.94563 49.3671 6.96992C49.0121 7.26323 48.6585 7.57711 48.3573 7.92605C48.0055 8.32994 47.5934 8.62562 47.0602 8.7357C46.6311 8.76462 46.2031 8.77836 45.8065 8.59641C45.7748 8.58194 45.743 8.56746 45.7102 8.55255C45.1531 8.2743 44.7867 7.81392 44.5798 7.23491C44.4181 6.71067 44.4649 6.15747 44.6974 5.66425C44.9694 5.15698 45.4027 4.7637 45.8048 4.36009C45.8185 4.34636 45.8321 4.33263 45.8462 4.31848C46.0044 4.15964 46.1648 4.0054 46.3359 3.86037C46.364 3.83594 46.3921 3.81149 46.4202 3.78702C46.6634 3.57877 46.9154 3.38368 47.1716 3.19175C47.1898 3.17809 47.208 3.16443 47.2267 3.15036C47.9264 2.62632 48.6743 2.18924 49.456 1.7988C49.4798 1.78682 49.5035 1.77484 49.528 1.7625C50.2787 1.38535 51.0809 1.10165 51.8964 0.902661C51.9632 0.886294 52.03 0.869634 52.0967 0.852765C52.5795 0.730709 53.0602 0.635412 53.5547 0.574746C53.5777 0.571913 53.6006 0.56908 53.6243 0.566161C54.1727 0.499649 54.7174 0.481942 55.2697 0.480721Z" fill="#E63F3A"/>
<path d="M53.3826 14.9484C53.4203 14.9562 53.4203 14.9562 53.4587 14.9641C54.8911 15.2646 56.8222 15.9066 57.8678 16.9543C57.885 16.9695 57.9022 16.9847 57.92 17.0004C58.3023 17.3478 58.514 17.9148 58.5472 18.423C58.5625 18.8381 58.483 19.2329 58.2857 19.6009C58.272 19.6277 58.2584 19.6545 58.2443 19.6821C57.9474 20.2305 57.4503 20.5967 56.8614 20.7831C56.2937 20.9476 55.6658 20.8658 55.146 20.592C55.008 20.5159 54.8715 20.4371 54.7351 20.3581C54.5571 20.2552 54.3755 20.1623 54.1902 20.0734C54.1313 20.0449 54.0728 20.0156 54.0143 19.9862C53.6563 19.8087 53.2869 19.6739 52.909 19.5452C52.8833 19.5362 52.8577 19.5272 52.8312 19.5179C52.1913 19.2945 51.5254 19.1542 50.8475 19.1273C50.8037 19.1254 50.8037 19.1254 50.759 19.1236C49.9965 19.0965 49.2574 19.1912 48.5631 19.5138C48.5391 19.5249 48.5151 19.536 48.4904 19.5475C48.3206 19.6299 48.1795 19.7325 48.0338 19.8516C48.005 19.8723 47.9763 19.893 47.9467 19.9143C47.7707 20.0827 47.636 20.3032 47.6055 20.5473C47.5995 20.8291 47.6623 21.0837 47.8388 21.309C48.7422 22.2279 50.8517 22.2866 52.0676 22.4577C52.2929 22.4897 52.5174 22.5271 52.7419 22.5637C52.8202 22.5765 52.8986 22.589 52.977 22.6015C53.5706 22.6959 54.1616 22.8005 54.7512 22.9178C54.7796 22.9235 54.8081 22.9291 54.8374 22.9349C55.3922 23.0447 55.944 23.1704 56.4836 23.341C56.5171 23.3515 56.5506 23.362 56.5852 23.3729C57.8455 23.7751 58.9615 24.3191 59.9294 25.2284C59.9471 25.2446 59.9648 25.2608 59.983 25.2775C60.1524 25.438 60.2919 25.6267 60.4308 25.8134C60.4427 25.8294 60.4546 25.8453 60.4669 25.8617C60.8045 26.3213 61.0385 26.8514 61.183 27.4014C61.1918 27.4347 61.2005 27.468 61.2096 27.5023C61.46 28.5643 61.3564 29.7408 60.9323 30.7445C60.9218 30.7694 60.9113 30.7943 60.9005 30.82C60.6802 31.3327 60.3842 31.7783 60.0129 32.1932C59.9908 32.2187 59.9687 32.2442 59.9459 32.2704C59.819 32.4151 59.688 32.5448 59.5394 32.6668C59.5258 32.6783 59.5123 32.6899 59.4983 32.7018C58.9398 33.1778 58.3007 33.5101 57.624 33.7836C57.5848 33.7995 57.5457 33.8155 57.5067 33.8318C56.9666 34.0569 56.381 34.1815 55.8063 34.2826C55.7523 34.2923 55.7523 34.2923 55.6973 34.3021C55.4109 34.3523 55.1246 34.39 54.8353 34.4186C54.7679 34.4253 54.7005 34.4324 54.6331 34.4396C53.9174 34.5133 53.1964 34.5107 52.4776 34.5106C52.3877 34.5106 52.2978 34.5108 52.2079 34.5112C51.6865 34.5134 51.1715 34.507 50.6525 34.4497C50.616 34.4459 50.5794 34.4421 50.5418 34.4382C50.4561 34.4289 50.3706 34.4187 50.2851 34.408C50.2579 34.4047 50.2307 34.4014 50.2028 34.3981C47.9318 34.1196 45.7017 33.3439 43.7435 32.1653C43.7177 32.1498 43.6919 32.1344 43.6652 32.1185C43.3163 31.9092 42.9825 31.6852 42.6571 31.441C42.6312 31.4217 42.6312 31.4217 42.6048 31.4021C42.347 31.2099 42.0985 31.0062 41.877 30.7724C41.8646 30.7598 41.8522 30.7473 41.8395 30.7344C41.384 30.2449 41.295 29.6296 41.3151 28.9883C41.3479 28.4187 41.6455 27.8911 42.0546 27.5041C42.1995 27.3782 42.3503 27.2723 42.5178 27.1785C42.5513 27.1597 42.5513 27.1597 42.5856 27.1406C43.15 26.8561 43.7466 26.8342 44.3441 27.0132C44.7319 27.1419 45.0234 27.3552 45.3396 27.6051C46.8581 28.8016 48.6725 29.605 50.5828 29.9035C50.6173 29.9089 50.6517 29.9143 50.6872 29.9199C50.7962 29.9362 50.9053 29.9508 51.0146 29.9644C51.0348 29.967 51.0549 29.9696 51.0757 29.9723C51.5348 30.0297 51.9946 30.0302 52.4565 30.029C52.5197 30.0289 52.583 30.0288 52.6463 30.0287C54.6269 30.085 54.6269 30.085 56.3555 29.3333C56.542 29.1326 56.5743 28.9393 56.5685 28.6687C56.5495 28.4845 56.4944 28.3395 56.3635 28.2093C56.3635 28.1909 56.3635 28.1725 56.3635 28.1536C56.3474 28.146 56.3313 28.1385 56.3147 28.1307C56.252 28.0979 56.1982 28.0604 56.1409 28.0189C55.9907 27.9178 55.8323 27.8602 55.6618 27.8019C55.6308 27.791 55.5999 27.7802 55.568 27.769C55.352 27.6942 55.1359 27.6268 54.9148 27.5686C54.876 27.5581 54.8372 27.5475 54.7985 27.537C54.4972 27.4557 54.1954 27.3852 53.8893 27.3248C53.8662 27.3202 53.8432 27.3156 53.8195 27.3109C52.8469 27.1179 51.8654 26.9704 50.8863 26.8154C50.0431 26.682 49.2032 26.5439 48.3744 26.3371C48.282 26.3143 48.1894 26.2924 48.0968 26.2707C46.4311 25.8753 44.8131 25.1808 43.8647 23.6848C43.3966 22.9243 43.1175 22.1344 43.1202 21.2341C43.1202 21.2145 43.1202 21.195 43.1203 21.1748C43.126 19.5311 43.6884 17.9525 44.83 16.7593C44.8445 16.7439 44.8589 16.7285 44.8738 16.7127C46.7313 14.7453 49.8245 14.3842 53.3826 14.9484Z" fill="#E63F3A"/>
</svg>
